<svg id="ey1PDarSk5F1" xmlns="http://www.w3.org/2000/svg" xmlns:xlink="http://www.w3.org/1999/xlink" viewBox="0 0 1400 950" shape-rendering="geometricPrecision" text-rendering="geometricPrecision">
<style><![CDATA[
#ey1PDarSk5F5 {animation: ey1PDarSk5F5_s_do 3000ms linear infinite normal forwards}@keyframes ey1PDarSk5F5_s_do { 0% {stroke-dashoffset: 48} 100% {stroke-dashoffset: 0}} #ey1PDarSk5F6 {animation: ey1PDarSk5F6_s_do 3000ms linear infinite normal forwards}@keyframes ey1PDarSk5F6_s_do { 0% {stroke-dashoffset: 20} 100% {stroke-dashoffset: 44}} #ey1PDarSk5F7 {animation: ey1PDarSk5F7_s_do 3000ms linear infinite normal forwards}@keyframes ey1PDarSk5F7_s_do { 0% {stroke-dashoffset: 0} 100% {stroke-dashoffset: 48}} #ey1PDarSk5F8 {animation: ey1PDarSk5F8_s_do 3000ms linear infinite normal forwards}@keyframes ey1PDarSk5F8_s_do { 0% {stroke-dashoffset: 0} 100% {stroke-dashoffset: 48}} #ey1PDarSk5F9 {animation: ey1PDarSk5F9_s_do 3000ms linear infinite normal forwards}@keyframes ey1PDarSk5F9_s_do { 0% {stroke-dashoffset: 48} 100% {stroke-dashoffset: 0}} #ey1PDarSk5F10 {animation: ey1PDarSk5F10_s_do 3000ms linear infinite normal forwards}@keyframes ey1PDarSk5F10_s_do { 0% {stroke-dashoffset: 48} 100% {stroke-dashoffset: 0}} #ey1PDarSk5F11 {animation: ey1PDarSk5F11_s_do 3000ms linear infinite normal forwards}@keyframes ey1PDarSk5F11_s_do { 0% {stroke-dashoffset: 48} 100% {stroke-dashoffset: 0}} #ey1PDarSk5F12 {animation: ey1PDarSk5F12_s_do 3000ms linear infinite normal forwards}@keyframes ey1PDarSk5F12_s_do { 0% {stroke-dashoffset: 48} 100% {stroke-dashoffset: 0}}
]]></style>
<defs><linearGradient id="ey1PDarSk5F24-fill" x1="0.584613" y1="0.817537" x2="0.584613" y2="0.947509" spreadMethod="pad" gradientUnits="objectBoundingBox" gradientTransform="translate(0 0)"><stop id="ey1PDarSk5F24-fill-0" offset="0%" stop-color="#fff"/><stop id="ey1PDarSk5F24-fill-1" offset="100%" stop-color="#f4f5f8"/></linearGradient><linearGradient id="ey1PDarSk5F72-fill" x1="0.584613" y1="0.817537" x2="0.584613" y2="0.947509" spreadMethod="pad" gradientUnits="objectBoundingBox" gradientTransform="translate(0 0)"><stop id="ey1PDarSk5F72-fill-0" offset="0%" stop-color="#fff"/><stop id="ey1PDarSk5F72-fill-1" offset="100%" stop-color="#f4f5f8"/></linearGradient><linearGradient id="ey1PDarSk5F121-fill" x1="0.584613" y1="0.817537" x2="0.584613" y2="0.947509" spreadMethod="pad" gradientUnits="objectBoundingBox" gradientTransform="translate(0 0)"><stop id="ey1PDarSk5F121-fill-0" offset="0%" stop-color="#fff"/><stop id="ey1PDarSk5F121-fill-1" offset="100%" stop-color="#f4f5f8"/></linearGradient></defs><g transform="translate(179.849976 0)"><g transform="translate(0 0.000001)"><path d="M300.13,529.74c-4.96,1.86-9.9,3.76-14.84,5.71-.31-1.66-.62-3.33-.93-5l.1-.05c10.17-5.36,20.43-10.54,30.77-15.55h.03c5.75-1.15,11.5-2.24,17.25-3.27c4.98,0,9.94.05,14.89.13c3.63,1.27,7.25,2.56,10.85,3.87-.58,1.74-1.16,3.48-1.74,5.21-4.55.2-9.11.44-13.68.71.91,1.75,1.83,3.5,2.74,5.25.5,1.42,1.01,2.84,1.51,4.25-1.9.83-3.81,1.67-5.7,2.51-3.58,1.81-7.14,3.64-10.7,5.49h-.05c-2.8.28-5.61.57-8.42.87.11-3,.23-6,.35-9l.11-.04c4.18-1.73,8.36-3.43,12.56-5.11-5.31-1.21-10.65-2.37-16.01-3.48-6.39,2.44-12.76,4.94-19.12,7.51m173.06-33.02c2.32-.05,4.63-.09,6.95-.12h.03c3.22-.95,6.45-1.88,9.68-2.79c1.69-.41,3.37-.82,5.06-1.22-.16-.85-.32-1.7-.48-2.56-2.82-.38-5.65-.74-8.49-1.1-3.63.79-7.25,1.59-10.87,2.42-.63,1.79-1.26,3.57-1.89,5.36m-169.66,46.5l-.11.07c.39.38.78.76,1.17,1.14c5.71-1.6,11.43-3.14,17.15-4.62l.18-.05c-.31-.79-.61-1.59-.92-2.38-1.21-.07-2.42-.14-3.64-.21-2.13.37-4.26.76-6.39,1.15-2.49,1.62-4.97,3.25-7.44,4.9m-24.4,8.46l-.08.02c-1.6,2.21-3.18,4.42-4.76,6.64c1.73-.39,3.47-.77,5.2-1.14c4.12-1.81,8.24-3.59,12.38-5.34-1.79-.79-3.59-1.58-5.39-2.37-2.45.72-4.9,1.45-7.35,2.19m22.33-13.23c-1.02-1.89-2.04-3.78-3.07-5.67-3.07.98-6.13,1.97-9.19,2.98l-.06.02c-3.22,3.35-6.42,6.71-9.58,10.09c2.02.08,4.04.16,6.06.26h.05c5.2-2.58,10.41-5.12,15.65-7.61l.13-.06m-43.83,5.24c2-1.86,4.01-3.72,6.03-5.57l.11-.11c-1.35-.33-2.7-.65-4.05-.97l-.07-.02c-2.69,1.54-5.38,3.1-8.06,4.67-2.15,1.57-4.3,3.14-6.44,4.72c4.13-.93,8.27-1.84,12.4-2.71l.07-.02m21.47-12.16c-.56-.5-1.11-.99-1.67-1.49l-.03-.03c-1.56.22-3.13.45-4.7.68-1.71,1.45-3.42,2.91-5.13,4.37l-.1.09c.96.52,1.92,1.03,2.88,1.55c2.91-1.74,5.82-3.46,8.74-5.17M168.76,590.89c-.54-.37-1.09-.74-1.63-1.11l-.04-.02c-1.45.4-2.89.8-4.34,1.21-1.48,1.6-2.95,3.2-4.41,4.81.92.35,1.84.7,2.75,1.05c2.55-1.99,5.1-3.96,7.66-5.93M5.26,770.59c-.65,1.18-1.3,2.35-1.95,3.53.59.08,1.19.15,1.78.23c1.24-1.57,2.49-3.13,3.74-4.69-.38-.14-.77-.29-1.15-.43-.81.45-1.62.9-2.42,1.36m-3.97,7.04c-.43.8-.87,1.6-1.3,2.4.4.05.79.1,1.18.14.83-1.07,1.67-2.13,2.5-3.19-.25-.09-.51-.19-.76-.28-.54.31-1.09.62-1.63.93m322.19-277.2c-1.51,1.57-3.01,3.14-4.51,4.71c8.47-3.25,16.98-6.38,25.52-9.39c3.1-2.59,6.22-5.16,9.36-7.72c8.55-3.55,17.15-6.98,25.8-10.3c3.88-1.88,7.77-3.73,11.68-5.57c1.98-1.09,3.97-2.18,5.96-3.26-6.31,1.77-12.61,3.61-18.89,5.5-3.6,1.29-7.2,2.61-10.78,3.94-4.86,1.53-9.7,3.09-14.54,4.69-4.12,1.5-8.22,3.03-12.32,4.58-3.27,1.35-6.54,2.72-9.79,4.11l-.16.07c.93,1.24,1.86,2.47,2.78,3.71l-.11.05c-3.07,1.45-9.09,4.37-9.99,4.87m-8.09,1.08c1.84-1.12,3.69-2.23,5.55-3.34-1.58-.15-3.16-.29-4.74-.43-2.85,1.36-5.69,2.73-8.52,4.11-2,1.22-4,2.44-5.99,3.67c2.77-.53,5.55-1.06,8.32-1.57c1.79-.82,3.59-1.64,5.39-2.45M300.04,518.2c1.74-.69,3.49-1.38,5.23-2.07c3.51-1.26,7.03-2.51,10.56-3.73h.02c2.47-1.33,4.96-2.63,7.44-3.93.81-.95,1.62-1.9,2.43-2.85-2.17.59-4.34,1.18-6.52,1.79-2.33.77-4.66,1.56-6.98,2.35-5.04,1.27-10.09,2.58-15.13,3.93h-.05c-2.15,1.67-4.29,3.33-6.43,5c1.08.15,2.15.3,3.23.45c2.07-.32,4.13-.63,6.19-.94M292.5,692.86c-.92-.38-1.85-.77-2.77-1.15h-.03c-1.94.47-3.89.97-5.83,1.47-2.98.33-5.96.67-8.95,1.03-3.17.85-6.35,1.73-9.52,2.62-1.81.63-3.62,1.27-5.43,1.91-2.77,1.52-5.54,3.06-8.3,4.62-.25,1.42-.5,2.84-.75,4.27c1.05-.47,2.09-.95,3.14-1.42h.02c1.45-1.1,2.91-2.19,4.37-3.27c4.21-1.21,8.41-2.39,12.62-3.52c4.66-.87,9.3-1.7,13.95-2.49c2.49-1.37,4.98-2.73,7.48-4.08m17.32-2.32c1.83-.87,3.66-1.74,5.5-2.6-.56-.58-1.11-1.16-1.67-1.74l-.02-.02c-.94,0-1.89,0-2.83,0h-.03c-3.88,1.63-7.75,3.3-11.61,4.99h-.03c-1.38,1.36-2.76,2.72-4.13,4.07-.56.85-1.13,1.7-1.69,2.56c1.25-.06,2.51-.13,3.76-.18c4.23-2.39,8.49-4.75,12.76-7.07m-38.31-1.97c.98-1.17,1.96-2.34,2.95-3.51-.41-.79-.82-1.58-1.24-2.38-.88.74-1.76,1.49-2.63,2.23.31,1.22.61,2.43.92,3.65m4.04-8.31c.12-.71.25-1.42.37-2.14-1.18.61-2.36,1.22-3.54,1.83-.57.77-1.14,1.54-1.71,2.31.79.1,1.59.21,2.38.31.83-.77,1.67-1.55,2.5-2.32m6.23,1.76c.16.45.32.9.48,1.35.58.09,1.15.17,1.73.26.43-.45.86-.9,1.29-1.34-.47-.23-.93-.45-1.4-.68-.7.14-1.4.27-2.09.41m2.63,2.94c.08.47.15.93.23,1.4.43.06.85.13,1.28.19.57-.43,1.13-.85,1.7-1.28-.46-.22-.92-.45-1.38-.67-.61.12-1.22.24-1.83.35m6.26,3.67c.45-.74.91-1.48,1.37-2.21-1.02.07-2.05.15-3.07.23-.61.51-1.22,1.01-1.82,1.52.22.69.44,1.39.66,2.08.95-.54,1.91-1.08,2.87-1.62m-11.8,18.67c1.24-.16,2.47-.32,3.71-.48c1.29-1.55,2.59-3.09,3.89-4.63-1.98.23-3.97.47-5.95.72-1.23,1.02-2.46,2.05-3.69,3.07.68.44,1.37.87,2.05,1.31m42.23-23.31c-.69,1.18-1.37,2.36-2.05,3.54c1.95-.83,3.9-1.65,5.85-2.47l.04-.02c.85-.91,1.69-1.82,2.54-2.72-.87.03-1.74.06-2.61.09h-.03c-1.25.52-2.49,1.05-3.74,1.57m27.16,10.5c-.3-.04-.59-.09-.89-.13-.4.15-.8.3-1.2.46-.18.49-.35.97-.53,1.45.63-.24,1.25-.47,1.88-.71.25-.36.49-.71.74-1.07m4.95.76c-.24-.57-.47-1.13-.71-1.7-.64.58-1.28,1.17-1.92,1.76.01.48.03.96.04,1.45.46-.13.92-.26,1.38-.39.41-.37.81-.74,1.22-1.12m-18.83-16.59c-.65.26-1.31.52-1.96.78-.33.68-.65,1.36-.98,2.04c1.02-.41,2.04-.81,3.06-1.22.42-.51.85-1.03,1.27-1.54-.46-.02-.93-.04-1.39-.06m4.08,4.24c-.11-.32-.22-.65-.32-.97-.49-.22-.97-.43-1.46-.64-.88.35-1.75.69-2.62,1.04.76.34,1.52.67,2.29,1.01.71-.15,1.42-.29,2.12-.44m2.65-4.04c-.31-.15-.62-.29-.93-.44-.72.37-1.45.74-2.17,1.12.49.23.98.47,1.47.71.56-.18,1.12-.37,1.67-.55-.02-.28-.03-.56-.05-.83m4.04-.53c-.44-.41-.88-.82-1.32-1.23-.42.5-.84,1-1.26,1.5.19.37.37.74.56,1.1.41-.14.82-.29,1.23-.43.26-.32.53-.63.79-.95m4.95,5.4c-.45-.36-.9-.72-1.35-1.08-.35.4-.69.8-1.03,1.2.21.31.41.63.62.94.37-.11.74-.21,1.12-.32.21-.25.43-.5.64-.75m7.57,4.15c.53-.09,1.07-.19,1.6-.28.13-.28.27-.56.4-.84-.4-.31-.8-.62-1.2-.93-.4.36-.8.73-1.2,1.1.13.32.26.63.39.95m-9.57.84c.26-.07.51-.14.77-.21.14-.17.28-.33.43-.5-.32-.25-.64-.49-.96-.74-.23.27-.46.53-.69.8.15.22.3.43.46.65m.97,3.06c.26-.3.51-.6.77-.91-.57-.44-1.14-.88-1.72-1.32-.42.49-.83.97-1.25,1.46.27.38.54.77.81,1.15.46-.13.93-.26,1.39-.38m-3.81-8.94c.52-.29,1.05-.58,1.57-.87-.48-.45-.96-.9-1.44-1.35-1.34.71-2.68,1.42-4.02,2.13.48.25.96.5,1.45.76.58,0,1.16,0,1.74,0c.24-.22.47-.45.71-.67M459.4,855.74c.29.17.59.34.88.51.22-.42.44-.84.67-1.26-.29-.04-.57-.08-.86-.12-.23.29-.46.58-.68.87m-3.21.45c.24.13.47.27.71.4.18-.34.36-.68.53-1.02-.23-.03-.46-.06-.69-.09-.18.24-.37.47-.55.71M766.96,708.03c-5.01,2.39-9.97,4.83-14.88,7.31-1.85.78-3.69,1.56-5.53,2.35l-.04.02c-1.06,2.95-2.1,5.91-3.14,8.87-1.08,5.23-2.15,10.45-3.2,15.68l-.02.09c3.66.55,7.32,1.13,10.97,1.73h.08c5.09-7.73,10.33-15.41,15.71-23.04v-.02c.03-4.27.04-8.55.05-12.83v-.17m-294.4-73.25c-1.23.49-2.46.98-3.68,1.47-.16.57-.31,1.14-.47,1.71c1.58-.01,3.15-.02,4.73-.02.41-.64.81-1.27,1.22-1.9-.6-.42-1.2-.83-1.8-1.25m5.59,2.65c.1-.37.2-.74.3-1.12-.55-.09-1.1-.19-1.64-.28-.71.71-1.42,1.41-2.13,2.12-.17.22-.34.44-.51.66.99-.15,1.98-.29,2.97-.43.34-.32.67-.63,1.01-.95m-.34,1.96c.73.56,1.46,1.13,2.19,1.69c1.22-.55,2.44-1.09,3.67-1.64-.09-.37-.17-.74-.26-1.11-.71.01-1.43.03-2.14.04-1.15.34-2.3.67-3.45,1.02m130.87,20.28c-.87.12-1.73.24-2.6.36.46.51.93,1.03,1.39,1.54.94-.27,1.88-.54,2.82-.81-.02-.29-.05-.58-.07-.87-.51-.07-1.02-.15-1.53-.22h-.02m136.19,47.46c1.88-.05,3.77-.09,5.65-.12.03-.32.06-.64.1-.95-.98-.23-1.96-.46-2.95-.69-1.67-.1-3.34-.2-5.01-.3.73.67,1.45,1.35,2.17,2.03l.04.04m-263.63-69.6c.3-.26.59-.52.89-.79-.09-.38-.18-.76-.27-1.14-.68.16-1.35.32-2.03.48-.23.5-.45,1-.67,1.5.7-.02,1.39-.04,2.09-.05m123.67,26.15l-.06.02c-.19.53-.37,1.07-.56,1.6c1.25.26,2.5.52,3.74.79.39-.55.78-1.1,1.18-1.66-.43-.51-.86-1.02-1.3-1.54-1,.26-2,.52-3,.78m139.1,40.45c.38-.39.76-.79,1.14-1.18-.26-.48-.52-.95-.79-1.43-.81.07-1.61.14-2.42.21h-.06c-.22.41-.44.82-.66,1.22.9.38,1.8.75,2.7,1.13l.09.04M629.67,549.57l-.03-.03c-1.74-.24-3.48-.48-5.22-.71-2.05.95-4.1,1.9-6.14,2.86c2.98.32,5.96.66,8.93,1.01h.05c1.35-.49,2.69-.99,4.04-1.48-.54-.55-1.09-1.1-1.64-1.65m-27.47-1.99c.96-.34,1.92-.67,2.88-1l.05-.02c.63-1.07,1.26-2.14,1.89-3.21-1.23-.86-2.47-1.72-3.72-2.57-1,1.43-1.99,2.87-2.98,4.3.63.83,1.25,1.67,1.87,2.5m22.83,9.1c.64.24,1.27.47,1.91.71.93-.67,1.85-1.33,2.78-2-1.21.06-2.43.13-3.64.19-.35.36-.7.73-1.05,1.09m-17.6-19.74c-1.58-.07-3.16-.14-4.74-.2-.57.61-1.14,1.22-1.71,1.82c1.07.36,2.15.72,3.22,1.08c1.07-.9,2.15-1.81,3.23-2.71m-26.27,10.34c-1.57-.03-3.13-.05-4.7-.07-.55.62-1.1,1.25-1.64,1.87c1.08.33,2.15.66,3.22.99c1.04-.93,2.08-1.87,3.12-2.8m-9.05,3.85c.51.67,1.02,1.34,1.53,2.01.68-.6,1.35-1.21,2.03-1.81-.4-.39-.8-.78-1.2-1.17-.79.32-1.58.65-2.36.98m13.19-5.72c-1.25.14-2.5.28-3.75.43.64.54,1.27,1.08,1.9,1.62.77-.14,1.54-.29,2.31-.43-.15-.54-.31-1.08-.46-1.62m94.18,12.6c-.62-.86-1.23-1.72-1.85-2.58-3.14,0-6.28,0-9.41.03.2.71.4,1.42.61,2.14c3.48.12,6.96.25,10.43.41h.23M528.16,511.93c-.6,2.11-1.2,4.22-1.8,6.33l-.03.12c3.22-.51,6.43-1,9.65-1.48c1.5-1.39,3.01-2.78,4.52-4.16.53-1.97,1.07-3.94,1.62-5.92-1.65.02-3.3.05-4.94.08-3,1.65-5.99,3.32-8.97,5l-.04.03m14.56-7.41c.07-.61.15-1.22.22-1.84-1.35.02-2.71.04-4.06.06-1.17.48-2.34.96-3.51,1.44.68.36,1.36.73,2.03,1.09c1.77-.26,3.55-.51,5.32-.75m-8.58.75c-.49-.34-.97-.69-1.46-1.03-.5.42-1,.83-1.49,1.25-.23.47-.47.94-.7,1.41.4-.06.79-.12,1.19-.18.4-.19.81-.37,1.21-.56.42-.3.83-.59,1.25-.89m33.17,5.34c-1.79-1.43-3.58-2.85-5.39-4.26-.24-1.97-.47-3.95-.71-5.92-1.21.39-2.42.77-3.63,1.16l.12-.13c.26-.25.52-.4.82-.54.18-.06.35-.13.51-.18h-.02l.09-.03c.18-.06.91-.42,1.09-.39l-4.84-.8c.3-1.13.6-2.26.9-3.38-2.84.35-5.67.71-8.51,1.09.31,2.29.61,4.57.92,6.86l.98-.15.03.24-.07.02c.41,1.15.82,2.31,1.23,3.46.84.21,1.67.42,2.51.62-.91,1.64-1.81,3.28-2.71,4.92-.38,1.13-.76,2.25-1.13,3.38-1.58.83-3.16,1.65-4.73,2.49c1.33.29,2.65.58,3.97.87-.09,1.02-.19,2.04-.28,3.07c5.02-2.18,10.07-4.33,15.15-6.43c1.6-1.09,3.21-2.18,4.83-3.26-.38-.9-.75-1.81-1.13-2.71m146.11,45.74c-.99-.49-1.98-.98-2.97-1.47-1.64.68-3.27,1.37-4.9,2.05l-.13.06c.71.5,1.42,1,2.13,1.5l.08.05c1.93-.74,3.86-1.47,5.8-2.19m305.77,123.3c1.27.84,2.54,1.69,3.81,2.55.73-.23,1.47-.47,2.2-.7.39-.87.79-1.74,1.18-2.61-1.91-.86-3.81-1.71-5.72-2.56-.49,1.11-.98,2.21-1.47,3.32m71.96-17.43c-.56-.22-1.11-.44-1.67-.66l-.19.24c.19.15.38.3.57.45.51.18,1.02.36,1.53.54-.08-.19-.16-.38-.24-.57m44.24-24.5c.56,2.7,1.12,5.41,1.66,8.11v.06c1.85,1.05,3.68,2.1,5.52,3.17-.06-2.93-.14-5.85-.22-8.78-.03-2.16-.06-4.31-.1-6.47-2.14-2.24-4.3-4.48-6.46-6.7-1.57-2.94-3.16-5.87-4.77-8.8l-.02-.03c-3.47-2.65-6.97-5.28-10.48-7.89c1.83,3.1,3.64,6.21,5.43,9.32c1.31,1.67,5.9,7.75,6.1,8.27c1.14,3.25,2.25,6.5,3.35,9.75m-68.88,45.72h-.07c-.24,1.77-.48,3.53-.72,5.29v.09c.98.33,1.98.66,2.97.99c1.49-.85,2.99-1.69,4.49-2.53h.03c.25-1.39.51-2.76.76-4.14-2.49.09-4.98.18-7.46.29M884.31,456.37h.04c1.82-.31,3.64-.62,5.47-.92-2.41-.98-4.83-1.94-7.26-2.9-2.32.44-4.63.9-6.94,1.36.53.49,1.06.97,1.59,1.46c2.37.32,4.74.66,7.1,1m3.18,1.06c1.31.54,2.63,1.08,3.94,1.62h.04c1.25.15,2.5.29,3.75.43-1.02-.83-2.03-1.66-3.05-2.49l-.05-.04c-1.63-.16-3.27-.31-4.9-.45.09.31.19.62.28.93m14.74,7.39c1.56-.12,3.11-.24,4.67-.35-1.79-.9-3.59-1.8-5.39-2.7l-.07-.03c-1.98.19-3.96.39-5.94.59.35.41.7.82,1.04,1.23c1.89.41,3.79.83,5.68,1.25m240.78,217.74c.65-1.83,1.31-3.67,1.96-5.5.42-1.61.84-3.21,1.26-4.82-.55-1.61-1.11-3.22-1.68-4.82l-.02-.06c-1.98-.95-3.96-1.9-5.95-2.84.19,2.9.36,5.81.53,8.71-2.73.61-5.46,1.23-8.17,1.86-1.95-.29-3.9-.58-5.84-.86-2.96-1.44-5.93-2.86-8.9-4.27l-.06-.03c-.81.15-1.63.31-2.44.46-1.02-.05-2.04-.11-3.05-.16-.77.13-1.54.26-2.31.39.31.67.63,1.33.94,2c1.01.15,2.02.31,3.03.47c2.71,1.09,5.41,2.2,8.11,3.32c1.35,1.83,2.7,3.67,4.04,5.5c2.38-.02,4.76-.02,7.15-.02c1.79,1.06,3.58,2.12,5.36,3.19c2.01-.85,4.02-1.7,6.04-2.54m-22.83-3.54l.07-.03c-.73-1.03-1.47-2.05-2.21-3.08-1.12.82-2.24,1.64-3.36,2.46.93.62,1.87,1.24,2.8,1.86.9-.4,1.79-.81,2.69-1.21m-8.91-1.78v-.03c-.7-1.45-1.41-2.9-2.13-4.35-.1.02-.2.03-.3.05-2-.14-3.99-.28-5.98-.4c2.35,2.71,4.68,5.42,6.99,8.15.47-1.14.95-2.28,1.42-3.42M764.45,458.54c-.4.39-.8.78-1.2,1.16.83.12,1.65.23,2.48.35.74-.33,1.47-.65,2.21-.98.56-.39,1.13-.79,1.69-1.18.78-.33,1.57-.65,2.36-.98-.24-1.2-.48-2.4-.72-3.61.93-.78,1.86-1.57,2.79-2.35c2.88-1.05,5.77-2.09,8.67-3.12c4.42.14,8.84.31,13.27.51h.15c-.06-.76-.12-1.53-.18-2.3-2.13-.29-4.27-.57-6.41-.85-2.87.1-5.74.21-8.61.33-3.36.2-6.73.42-10.08.65-2.77.78-5.52,1.57-8.28,2.38l-.1.03c.41.72.82,1.44,1.22,2.16-.77.45-1.55.89-2.32,1.34-.05.56-.1,1.12-.14,1.67c1.13.49,2.26.98,3.39,1.47-.06,1.1-.12,2.2-.19,3.31m385.66,207.05c1.3-.47,2.6-.94,3.9-1.41-2.84-1.97-5.68-3.92-8.54-5.85-1.44-2.03-2.89-4.06-4.34-6.09-1.19,2.65-2.38,5.3-3.58,7.94l-.04.09c4.21,1.74,8.41,3.51,12.6,5.31M986.93,738.55l.02-.03c-1.3-2.79-2.61-5.58-3.94-8.36-1.49-3.58-3.01-7.16-4.56-10.74-2.6-2.81-5.23-5.61-7.88-8.39-.37-1.43-.74-2.86-1.11-4.29-2.74-2.62-5.51-5.23-8.31-7.82l-.03-.03c-1.56-.38-3.12-.75-4.68-1.12.59,1.72,1.18,3.44,1.76,5.17.49.94.99,1.88,1.48,2.82c1.56,2.34,3.1,4.68,4.62,7.03c2.15,4.04,4.25,8.08,6.31,12.13c1.31,4.19,2.57,8.37,3.8,12.56c1.77,1.85,3.53,3.71,5.28,5.57l.05.05c1.51-.05,3.02-.09,4.53-.13.89-1.47,1.78-2.94,2.67-4.41m50.76,12.72c-.48-1.97-.97-3.95-1.47-5.92.67-1.84,1.34-3.69,2.01-5.53l.04-.11c-5.37-1.27-10.74-2.48-16.1-3.63-3.08,0-6.16.02-9.23.06-1.65.06-3.3.12-4.95.19-1.76-.66-3.53-1.32-5.3-1.96l-.14-.05c-.13,2.24-.26,4.47-.41,6.71c1.82,2.13,3.63,4.28,5.43,6.42c3.28,1.93,6.55,3.88,9.81,5.86l.04.02c1.79-.04,3.59-.06,5.39-.08.83.67,1.67,1.33,2.5,2l.07.05c1.7-.57,3.41-1.13,5.11-1.69c2.37-.78,4.75-1.56,7.13-2.32l.06-.02m9.09,15.63l.03-.03c-.52-1.15-1.05-2.3-1.58-3.45-2.83.09-5.65.2-8.47.32c1.7,1.27,3.4,2.54,5.09,3.82.97.63,1.94,1.26,2.91,1.89.67-.85,1.35-1.7,2.03-2.55m16.04-6.18c-.77-.85-1.55-1.71-2.33-2.56-.85.13-1.69.26-2.54.39-2.12-1.57-4.24-3.12-6.37-4.67h-.02c-2.47-.94-4.94-1.85-7.41-2.75-1.24.65-2.48,1.3-3.72,1.96-.76,1.46-1.52,2.91-2.28,4.37-1.68.47-3.36.94-5.03,1.42h-.05c-.11,1.43-.21,2.84-.33,4.25v.03c1.18,1.65,2.36,3.3,3.52,4.96.06-1.51.12-3.02.17-4.53c2.93-.13,5.87-.24,8.81-.34c1.43-.55,2.87-1.1,4.31-1.65-1.84-2.31-3.69-4.62-5.56-6.91c4.27,1.64,8.53,3.32,12.78,5.05c2.02.32,4.03.65,6.05.99m10.03,8.36c.4-.69.8-1.39,1.21-2.08c1.38-.33,2.77-.66,4.15-.99-1.12-1.23-2.24-2.46-3.36-3.68l-.08-.09c-.8.36-1.59.72-2.39,1.09-.85.59-1.69,1.18-2.54,1.77h-.02c-.32,1.21-.64,2.41-.96,3.6c1.33.12,2.66.25,4,.38m-3.18,11.98l.03.02c1.23.29,2.46.58,3.69.88-.43-.85-.87-1.7-1.3-2.55-2.01-1.18-4.03-2.36-6.05-3.52-.35.61-.7,1.22-1.05,1.83.67.53,1.34,1.07,2.01,1.6.89.58,1.79,1.16,2.68,1.74m-28.11,5.93c3.34,1.01,6.67,2.04,10.01,3.11l.1.03c.25-.81.5-1.63.74-2.44l.03-.08c-1.18-.54-2.36-1.08-3.54-1.61-1.53-.55-3.07-1.09-4.6-1.63-1.9-.09-3.8-.17-5.69-.25.98.95,1.95,1.9,2.92,2.86l.03.03m-6.86-5.83c.87-.41,1.74-.81,2.6-1.22-.74-.9-1.48-1.81-2.23-2.71l-.04-.05c-1.81-.25-3.62-.5-5.43-.73c1.68,1.54,3.36,3.09,5.02,4.64l.07.07m-18.01-11.28c1.23,1.25,2.46,2.51,3.69,3.77l.05.06c1.33-.17,2.67-.34,4.01-.51-.75-.88-1.5-1.76-2.25-2.64l-.04-.05c-1.82-.22-3.64-.43-5.46-.63m8.28,6.99c1,1.04,2,2.09,2.99,3.14c1.09-.13,2.17-.25,3.26-.38-.6-.72-1.19-1.43-1.79-2.15l-.04-.05c-1.48-.19-2.95-.38-4.42-.57m-15.01-9.94l.03.03c1.1.29,2.21.58,3.31.87-.18-1.35-.36-2.7-.55-4.05-1.25-.62-2.5-1.23-3.75-1.84-1.74-1.72-3.49-3.42-5.25-5.13-5-3.37-10.04-6.68-15.13-9.93l-.04-.02c-2.69-.19-5.37-.37-8.05-.54c2.03,2.22,4.04,4.44,6.03,6.68c6.44,3.2,12.84,6.5,19.19,9.88c1.41,1.34,2.82,2.69,4.21,4.05m55.15-23.6c.87,1.25,1.73,2.49,2.6,3.74c2.77-.37,5.54-.73,8.33-1.08-.01-2.86-.04-5.72-.08-8.58v-.14c-2.81.22-5.62.45-8.41.7-1.83-.69-3.67-1.38-5.5-2.05c1.04,2.47,2.07,4.93,3.08,7.4m-17.88-22.74c-.74.63-1.48,1.27-2.22,1.9h-.01c-.24.69-.48,1.37-.73,2.06c2.5.6,5.01,1.21,7.51,1.83.98-1.43,1.96-2.86,2.94-4.29l.14-.23c-.1.02-.21.04-.31.07-.2-.02-.4-.06-.52-.09l.12-.03c.16-.04.32-.07.48-.11-2.45-.38-4.9-.75-7.35-1.1h-.05M901.13,666.37c-1.5,2.05-2.99,4.1-4.48,6.16l-.04.05c1.73,1.4,3.45,2.8,5.17,4.21c2.03-.98,4.07-1.95,6.12-2.92l.08-.04c-2.05-2.56-4.12-5.11-6.22-7.65-.21.06-.42.13-.63.19m162.72,35.8c-1.92,2.32-3.83,4.65-5.73,6.98l-.02.03c.66,1.52,1.31,3.04,1.96,4.56.66,2.43,1.31,4.87,1.95,7.3c3.67,1.27,7.35,2.57,11.02,3.9.33-.93.67-1.85,1-2.78l.02-.05c-2.03-2.15-4.08-4.28-6.14-6.41c1.02-1.93,2.05-3.86,3.07-5.79-2.31-2.55-4.65-5.08-7-7.6l-.12-.13m7.3,29.44c.51.75,1.02,1.49,1.53,2.24c1.8.16,3.6.33,5.4.5l.18.02c-1.48-2.03-2.96-4.05-4.46-6.07-.87,1.09-1.75,2.19-2.62,3.28l-.03.04m-3.37-5.93c-1.9-.34-3.8-.67-5.7-1c.67,1.32,1.33,2.63,1.99,3.95c1.27-.3,2.54-.59,3.82-.88-.04-.69-.07-1.38-.11-2.07m-2.19,3.94c-1.02.95-2.03,1.89-3.05,2.84c1.58.76,3.15,1.52,4.73,2.28.16-1.11.31-2.22.46-3.33-.71-.6-1.43-1.2-2.14-1.8m47.11,75.84c-3.06-3.53-6.15-7.03-9.28-10.5l-.03-.04c-3.67-1.02-7.34-2.01-11.01-2.97-1.02-1.85-2.05-3.7-3.08-5.55.29-1.21.58-2.42.86-3.63l.02-.1c-3.25-1.06-6.49-2.09-9.74-3.1l-.16-.05c.94,3,1.86,6,2.76,9c3.99,4.44,7.91,8.92,11.78,13.44-1.15,2.64-2.3,5.27-3.45,7.9c3.5,3.83,6.96,7.7,10.38,11.59l.03.13c2.51,1.33,5.01,2.68,7.51,4.05c1.97.6,3.94,1.21,5.91,1.83c1.14,2.27,2.26,4.53,3.38,6.8.27,1.18.54,2.35.81,3.53v.03c2.58,2.95,5.13,5.92,7.65,8.91.24-2.4.48-4.8.7-7.21-1-2.27-2.02-4.53-3.04-6.79.73-1.88,1.46-3.76,2.18-5.64v-.03c-1.37-3.23-2.78-6.46-4.21-9.69-3.24-4.06-6.52-8.09-9.85-12.09l-.11.17m-85.97,80.8l-.08-.09c-.88.82-1.75,1.63-2.63,2.45v0c-.91,1.84-1.82,3.68-2.74,5.51l-.03.07c1.35.98,2.69,1.97,4.03,2.96l.03.02c1.69.13,3.39.26,5.09.4c2.64-.63,5.28-1.25,7.94-1.85l.22-.05c-2.41-1.3-4.82-2.59-7.24-3.86-1.52-1.86-3.05-3.71-4.59-5.56m82.77,44.92c-1.35.78-2.69,1.56-4.04,2.34-2.12-.78-4.23-1.54-6.35-2.29l-.06-.02c-.97,1.02-1.94,2.03-2.91,3.05l-.03.03c.2,1.33.39,2.65.58,3.98c1.81.51,3.63,1.03,5.44,1.57c3.1-.17,6.2-.31,9.32-.43h.1c-.66-2.69-1.33-5.38-2.02-8.07l-.04-.15m-24.34-2.21c-1.57.09-3.13.18-4.69.28-1.22-.68-2.43-1.35-3.65-2.02-5.05-1.27-10.08-2.46-15.11-3.59-3.19.33-6.37.69-9.54,1.07c3.32,1.76,6.63,3.55,9.94,5.38c3.3.85,6.6,1.73,9.9,2.65c3.49.22,6.99.47,10.51.76c2.72-.09,5.45-.17,8.19-.22-.4-1.16-.8-2.32-1.2-3.48-1.45-.28-2.9-.56-4.34-.83m57.99-90.35h.04c2.3-1.41,4.61-2.83,6.93-4.24l.08-.05c-1.97-2.24-3.94-4.47-5.94-6.69.21,1.63.42,3.26.62,4.89-1.09.49-2.17.98-3.26,1.47-.98-.34-1.96-.68-2.94-1.02-2.37-.53-4.73-1.05-7.09-1.56c1.3,1.8,2.59,3.6,3.87,5.4c2.56.58,5.13,1.19,7.69,1.8m8.01,13.03l.02.03c1.07.76,2.14,1.52,3.21,2.29.08-.93.16-1.85.24-2.78v-.03c-1.78-2.79-3.58-5.57-5.4-8.33l-.12-.19c-.55,1.12-1.09,2.24-1.64,3.36c1.24,1.88,2.48,3.77,3.71,5.66m4.37,11.8c.17,1.74.34,3.47.5,5.21.41,1.09.82,2.18,1.23,3.27.82-.37,1.63-.73,2.45-1.09h.03c.55-2.56,1.1-5.11,1.63-7.67-1.93.08-3.85.18-5.77.28h-.08m-3.3-9.8c-.56-.37-1.12-.74-1.68-1.11-.15.65-.31,1.3-.46,1.95v.03c.78,1.69,1.56,3.38,2.33,5.07.47-.82.94-1.64,1.41-2.46l.02-.03c-.53-1.14-1.06-2.27-1.6-3.4l-.02-.04m3.68,6.71c.79-.02,1.58-.04,2.37-.05h.08c-.08-.91-.16-1.82-.25-2.73-.81-.28-1.62-.57-2.43-.85l-.1-.04c-.09.49-.18.98-.28,1.46.2.73.41,1.47.61,2.2m8.07,32.16l-.1-.04c-.22.94-.45,1.88-.68,2.82.32,1.41.63,2.83.94,4.24c1.54,0,3.09.02,4.64.04h.08c-.06-1.74-.12-3.49-.19-5.24-1.57-.61-3.13-1.22-4.7-1.82m-22.55-1.92c-.21.94-.42,1.88-.63,2.81.34,1.42.68,2.83,1.01,4.25c1.58,2.67,3.15,5.35,4.7,8.03.29-1.75.58-3.5.86-5.26-.31-.98-.61-1.96-.92-2.93-.08-1.74-.17-3.49-.26-5.23-1.55-.55-3.11-1.09-4.66-1.63l-.1-.03m54.29,36.8c-1.08-.42-2.15-.84-3.23-1.26-1.46-.85-2.93-1.69-4.4-2.53-.09.71-.18,1.43-.27,2.14.43,1.24.86,2.49,1.28,3.73c1.38.33,2.77.66,4.16,1c2.03.41,4.06.83,6.09,1.26-1.2-1.45-2.41-2.89-3.62-4.32l-.03-.03M717.39,464.11v0l-.22-.13v0c0,0,0,0,0,0-.13.08-.34.21-.62.37v0c0,0,.22.13.22.13.21-.12.41-.25.62-.37M440.56,497.33l.26.16.25-.14-.17-.16c17.3-7.13,34.86-13.79,52.65-19.97c8.91-5.74,17.95-11.35,27.13-16.84c2.11-2.49,4.24-4.97,6.38-7.45l.03-.03c-1.13-2.41-2.26-4.81-3.39-7.22l-.03-.07c-15.83,2.7-31.6,5.77-47.29,9.21-20.58,3.74-41.09,8.12-61.48,13.15h-.03c-8.67,4.27-17.25,8.64-25.76,13.13-3.27,1.32-6.54,2.65-9.8,4-3.17,2.34-6.32,4.69-9.45,7.05c5.63-1.86,11.26-3.66,16.92-5.42c7.15,3.75,14.23,7.58,21.22,11.49-1.7,3.13-3.37,6.27-5.03,9.41l-.02.04c1.11,1.12,2.23,2.25,3.33,3.38c2.2,1.9,4.39,3.81,6.57,5.73l.05.05c4.39-1.37,8.78-2.7,13.19-4.01l.06-.02c4.72-5.19,9.51-10.34,14.38-15.45h.03m655.37,352.94c2.05-2.96,4.11-5.92,6.16-8.87-1.77-4.75-3.59-9.49-5.46-14.23l-.06-.15c-5.6,3.15-11.15,6.35-16.65,9.61-2.07-1.94-4.14-3.86-6.23-5.77c1.48-4.72,2.93-9.45,4.37-14.19l.02-.06c-2.72-2.38-5.46-4.74-8.22-7.08l-.03-.02c-4.18-1.32-8.36-2.6-12.54-3.84h-.03c-3.04.57-6.07,1.17-9.09,1.78-5.55-2.18-11.12-4.28-16.69-6.31h-.03c-6.88,1.08-13.69,2.27-20.45,3.56-3.94-1.31-7.88-2.58-11.83-3.81-6.32-.51-12.62-.92-18.89-1.24h-.07c-3.54,7.61-7.07,15.22-10.61,22.84-2.8,1.56-5.59,3.13-8.36,4.72l-.03.02c-.16,1.27-.31,2.53-.47,3.8c8.46,2.35,16.92,4.88,25.36,7.59c6.17,1.8,12.34,3.7,18.51,5.7c3.87,1.35,7.73,2.74,11.59,4.17.87,4.16,1.71,8.32,2.5,12.48v.04c2.85,1.99,5.67,4,8.48,6.03-.59,3.05-1.2,6.1-1.82,9.14v.05c3.73,3.69,7.43,7.41,11.07,11.18l.03.03c2.72.34,5.45.7,8.18,1.08c1.96,1.19,3.92,2.4,5.88,3.61c7.39-.9,14.86-1.67,22.39-2.31c5.58-1.36,11.2-2.66,16.87-3.88h.03c2.53-2.87,5.07-5.74,7.61-8.6l.02-.02c.18-4.92.31-9.85.4-14.8-.6-4.08-1.24-8.16-1.91-12.25M973.92,669.33c-3.96-1.5-7.93-2.97-11.91-4.4l-.02-.05c-3.62-7.82-7.37-15.62-11.28-23.39-4.35-.95-8.7-1.86-13.05-2.74-4.24,1.04-8.46,2.12-12.66,3.22-6.02,1.75-11.99,3.57-17.92,5.45-3.4,5.55-6.75,11.12-10.08,16.71-2.59.78-5.18,1.56-7.76,2.36l-.05-.12c-4.03-10.23-8.29-20.44-12.76-30.62-.67-4.91-1.37-9.82-2.1-14.74-3.8-.23-7.6-.44-11.39-.62l-.04-.03c-8.35-6.56-16.88-13-25.58-19.3-10.26-3.55-20.61-6.92-31.05-10.1-10.17-3-20.42-5.82-30.73-8.46c7.18,5.88,14.22,11.85,21.12,17.89c3.05-1.96,6.13-3.9,9.22-5.82c3.62,2.81,7.2,5.64,10.75,8.5c1.43,2.03,2.85,4.06,4.25,6.1l-.09.04c-11.69,4.97-23.15,10.18-34.38,15.62-10.53,1.01-21,2.22-31.39,3.63-1.64-3.98-3.31-7.95-5.01-11.92-4.39-4.53-8.85-9.03-13.38-13.49-6.32-9.56-12.86-19.05-19.63-28.47-1.2,2.8-2.39,5.61-3.57,8.41c4.09,5.16,8.1,10.36,12.04,15.58c5.34,6.86,10.55,13.77,15.63,20.73c5.62,4.92,11.14,9.89,16.56,14.92c7.77.04,15.55.19,23.34.46-.49,3.83-.98,7.66-1.47,11.49l.21.05c-6.83,4.98-13.53,10.04-20.11,15.19-10.04,6.81-19.82,13.8-29.34,20.97c1.53,4.62,3.03,9.24,4.49,13.87v.02c-1.13,6.25-2.24,12.5-3.33,18.75l-.04.02c-5.04,2.46-10.03,4.96-14.97,7.52-.13.06-.29.13-.41.34-.04.06-.08.14-.11.23-1.13,4.64-2.25,9.29-3.34,13.94l-.05.02c-1.27.47-8.44,3.31-8.43,3.32l-.13.05c-.75,2.95-1.48,5.9-2.21,8.85l-.02.02c-3.35,2.79-6.66,5.6-9.94,8.43-3.13,2.45-6.24,4.91-9.3,7.4-2.73.7-5.46,1.42-8.17,2.16-5.88.17-11.75.41-17.61.73l-.03-.05c-1.77-3.08-3.56-6.16-5.37-9.23-3.28-3.45-6.6-6.88-9.98-10.28-1.28-5.87-2.59-11.74-3.92-17.6-3.46-6.01-7-12-10.61-17.96l.02-.03c2.21-4.66,4.46-9.32,6.76-13.97-2.02-5.32-4.07-10.63-6.15-15.93-4.52-4.43-9.11-8.83-13.77-13.18v-.04c.72-4.36,1.46-8.72,2.22-13.08-5.26-1.35-10.55-2.66-15.86-3.91-4.17-1.57-8.37-3.1-12.59-4.6-8.42,2.48-16.77,5.09-25.06,7.83-6.69,1.82-13.34,3.72-19.96,5.71l-.05-.02c-5.71-2.7-11.49-5.34-17.33-7.91-3.62-3.16-7.29-6.31-10.99-9.43-3.87-2.45-7.76-4.88-11.7-7.27v-.03c-.4-8.72-.76-17.45-1.07-26.18l.02-.02c4.98-6.23,10.08-12.41,15.3-18.55c3.78-5.64,7.65-11.25,11.6-16.84c4.15-3.61,8.36-7.18,12.61-10.73h.05c9.73-2.15,19.51-4.14,29.32-5.96c9.16-1.34,18.33-2.54,27.53-3.61c5.14-.44,10.28-.84,15.42-1.2c0-.11.01-.21.02-.32c6.44,3.64,12.81,7.34,19.09,11.12c10.42-.57,20.86-.96,31.3-1.16h.03c6.09,1.72,12.15,3.5,18.16,5.34c12.07-.47,24.16-.69,36.26-.66.26.01.51.03.77.04.46-4.89.93-9.79,1.4-14.68-3.11.25-6.21.52-9.31.8-2.93-.65-5.86-1.28-8.8-1.9-4.78-.32-9.57-.59-14.35-.83-3.47-3.73-6.97-7.44-10.53-11.13-.1.01-.2.02-.29.03-.83.09-1.67.17-2.49.25-2.27.22-4.62.45-6.74.96-3.34.8-3.36,1.89-3.41,3.68c0,.19-.01.38-.02.59-.07,1.43-.13,2.87-.2,4.3-3.51-1.67-7.04-3.31-10.59-4.94-1.32-2.34-2.65-4.67-4-7-5.06-1.89-10.16-3.74-15.29-5.54-6.44-1.94-12.92-3.81-19.45-5.61c5.36,3.29,10.67,6.64,15.92,10.02c3.24,1.17,6.46,2.37,9.67,3.58-1.14,1.46-2.28,2.93-3.41,4.4-2.41.72-4.81,1.44-7.21,2.18.22-1.45.44-2.89.66-4.33-4.57-1.32-9.15-2.6-13.76-3.85-3.65-2.4-7.33-4.78-11.04-7.14-6.78,1.33-13.54,2.74-20.28,4.22-2.09,1.63-4.17,3.27-6.24,4.92-3.53,2-7.04,4.03-10.53,6.07-.77,2.45-1.52,4.9-2.27,7.36l-.04.02c-1.61.97-3.22,1.95-4.82,2.93-6.06,1.51-12.09,3.08-18.11,4.72h-.03c-4.4-.26-8.81-.49-13.23-.69-.54-3.28-1.08-6.55-1.62-9.83.41-2.96.84-5.92,1.27-8.88l.12-.02c9.18-1.26,18.38-2.39,27.58-3.38.94-1.99,1.88-3.98,2.83-5.96-2.48-2.66-4.98-5.3-7.5-7.94c2.29-1.26,4.59-2.51,6.9-3.75c3.65-1.49,7.31-2.96,10.98-4.41c5.38-3.74,10.82-7.44,16.32-11.09c4.56-1.66,9.14-3.28,13.74-4.87.38-2.18.76-4.35,1.15-6.53c3.81.3,7.61.62,11.4.97-1.39-1.86-2.78-3.72-4.19-5.57-6.08.12-12.16.31-18.24.54l-.03-.06c-.77-1.25-1.54-2.5-2.31-3.75l.03-.04c2.34-2.56,4.7-5.1,7.08-7.64c3.16-3.33,6.34-6.64,9.57-9.93h.04c4.62-1.4,9.26-2.76,13.91-4.08c6.41-2.52,12.86-4.98,19.36-7.37c8.41-1.19,16.85-2.27,25.31-3.24h.03c4.48.47,8.96.97,13.42,1.5-.15.23-.3.46-.45.68c5.91.39,11.82.84,17.72,1.33c3.72.89,7.43,1.8,11.14,2.72c2.21.63,4.41,1.28,6.6,1.92c1.46.38,2.91.76,4.37,1.15-.12.08-.25.15-.37.23l.15.08-.08.06c-1.45,1.14-2.89,2.28-4.33,3.43h-.09c-6.21-.82-12.43-1.57-18.66-2.27.19,2,.37,4,.55,6c10.22-1.51,20.48-2.87,30.8-4.06c11.49-1.15,23.02-2.1,34.61-2.85c17.84-2.13,35.84-3.77,53.98-4.92h.04c6.38,1.51,12.75,3.07,19.1,4.69c11.85-.95,23.77-1.68,35.75-2.19c10,1.15,20,2.45,29.99,3.9c16.81,3.76,33.54,7.95,50.18,12.57l.05-.09c9.88,5.46,19.64,11.06,29.28,16.82c10.08,3.16,20.12,6.48,30.12,9.96c5.35,3.4,10.65,6.84,15.92,10.33c10.85,2.79,21.69,5.77,32.5,8.95h.02c9.06,4.37,18.05,8.86,26.98,13.49c4.34,3.54,8.65,7.12,12.93,10.72c11.06,4.44,22.07,9.1,33.02,13.97l.02.02c5.81,4.17,11.57,8.41,17.29,12.7c11.36,5.67,22.64,11.58,33.84,17.73c5.44,4.01,10.84,8.08,16.21,12.21c7.87,6.3,15.65,12.72,23.32,19.27c5.68,4.6,11.32,9.27,16.91,14l.02.04c1.22,3.31,2.41,6.62,3.59,9.94-7.5-3.65-15.03-7.19-22.56-10.62-4.33.12-8.64.27-12.94.45l-.04-.02c-6.94-3.09-13.9-6.08-20.87-8.98c2.34,5.25,4.63,10.51,6.86,15.77-.86,1.35-1.72,2.7-2.58,4.06-1.95,1.36-3.89,2.73-5.82,4.1l-.1-.18c-5.37-9.01-10.91-17.97-16.63-26.87c3.09-.77,6.19-1.53,9.3-2.27-5.2-5.79-10.48-11.52-15.84-17.21-4.3.34-8.59.71-12.85,1.11l-.06-.03c-11.96-6.05-24-11.82-36.13-17.33-3.47,1.33-6.93,2.68-10.37,4.05c6.79,5.04,13.51,10.17,20.15,15.39l.02.03c1.92,3.25,3.81,6.51,5.69,9.77.73,2.95,1.44,5.89,2.14,8.84-2.48,4.54-4.97,9.09-7.45,13.63h-.06c-6.45-.15-12.88-.21-19.28-.21-1.75,1.35-3.49,2.7-5.22,4.05c2.2,2.39,4.38,4.79,6.54,7.2v.03c.18,2.9.34,5.8.49,8.69h-.06c-2.29.45-4.58.9-6.86,1.35-1.47-1.16-2.95-2.32-4.44-3.47v-.05c.26-1.78.51-3.56.76-5.35-2.95-3.63-5.93-7.24-8.95-10.83-1.23-2.88-2.49-5.77-3.75-8.65-7.98-2.73-15.97-5.33-23.97-7.82c5.76,4.77,11.45,9.61,17.07,14.5l-.11.04c-2.75,1.13-5.5,2.27-8.23,3.42c3.22,5.16,6.37,10.34,9.45,15.53v.03c-1.14,3.93-2.28,7.86-3.43,11.78-5.81,2.39-11.56,4.84-17.27,7.34-5.19-1.87-10.39-3.69-15.59-5.45-3.79.04-7.57.1-11.33.2l-.05-.03c-4.63-2.99-9.29-5.94-13.98-8.84-.33,3.8-.67,7.6-1.03,11.4c2.26,5.91,4.44,11.82,6.55,17.74-6.32,2.02-12.57,4.11-18.77,6.27l-.07-.09c-6.15-7.39-12.46-14.71-18.95-21.94-.92,4.8-1.86,9.59-2.81,14.38c2.51,3.94,4.97,7.89,7.39,11.85.35,4.94.67,9.87.95,14.8-3-2.69-6.03-5.36-9.08-8.02v-.04c.26-3.58.49-7.16.72-10.75-1.93-2.59-3.88-5.18-5.85-7.76.59-1.53,1.18-3.06,1.77-4.59.5-6.66.95-13.33,1.36-20.01M720.15,521.51c-2.5,2.25-4.99,4.52-7.46,6.79-4.02-1.22-8.05-2.42-12.1-3.59-4.33.63-8.65,1.28-12.96,1.97-1.68,3.09-3.34,6.18-4.98,9.27c5.89.16,11.77.37,17.65.64c9.47-1.08,18.98-2.02,28.52-2.81-2.85-4.11-5.74-8.2-8.66-12.28m-78.9-47.65c-3.77,1.71-7.52,3.45-11.25,5.21c2.63,1.6,5.25,3.21,7.86,4.82-3.54,3.82-7.05,7.66-10.51,11.52h-.05c-6.81,1.91-13.58,3.88-20.31,5.92c12.18-.87,24.38-1.51,36.58-1.92c3.14-3.65,6.32-7.28,9.53-10.9h.06c5.97-.92,11.96-1.77,17.97-2.57-.7-1.24-1.4-2.47-2.1-3.71-5.96.04-11.92.14-17.88.29l-.03-.07c-.93-2.37-1.86-4.75-2.79-7.12c3.11-1.79,6.24-3.56,9.38-5.32-2.57-.81-5.14-1.61-7.72-2.4-2.93,2.07-5.85,4.15-8.74,6.25M449.71,705.94c6.28,2.85,12.48,5.77,18.61,8.77l-.03.06c-2.9,6.94-5.7,13.9-8.37,20.86c1.03,3.43,2.05,6.86,3.08,10.3-1.13,6.58-2.19,13.17-3.17,19.74l-.02.02c-5.37,5.74-10.62,11.54-15.73,17.4-.63,5.49-1.2,10.97-1.73,16.44-2.32,4.24-4.58,8.49-6.78,12.75-.14,3.32-.26,6.64-.37,9.95l-.05.03c-3.15,2.09-6.28,4.2-9.39,6.34-.32,7.39-.54,14.76-.68,22.12c3.86,6.24,7.69,12.5,11.49,18.78c1.81-.22,3.61-.43,5.42-.64c2.73.56,5.45,1.15,8.16,1.75-2.17,1.13-4.34,2.28-6.49,3.44h-.01c-2.01.48-4.02.96-6.03,1.46-1.02-1.47-2.05-2.94-3.08-4.41-3.29.62-6.57,1.27-9.86,1.94l-.03-.02c-6.65-3.48-13.4-6.85-20.25-10.11v-.03c-1.17-3.2-2.32-6.39-3.47-9.59-3.22-1.4-6.46-2.77-9.71-4.12-2.1-4.47-4.2-8.94-6.3-13.4-3.87-4.45-7.78-8.87-11.72-13.28v0c-2.23-5.69-4.45-11.37-6.66-17.05-3.39-3.76-6.8-7.5-10.23-11.23-8.27-1.07-16.62-1.99-25.05-2.75-10.78-4.47-21.76-8.71-32.93-12.7v-.02c-2.07-4.34-4.12-8.69-6.16-13.04c1.5-7.32,3.11-14.64,4.82-21.97-3.35-1.84-6.72-3.66-10.11-5.46-2.23,1.21-4.45,2.43-6.67,3.66-5.69,1.04-11.39,2.15-17.1,3.34h-.03c-4.47-1.24-8.96-2.43-13.48-3.58-3.88,1.28-7.77,2.59-11.65,3.93-5.71.72-11.43,1.51-17.18,2.36-4.84,2.74-9.66,5.54-14.47,8.39-8.43,2.48-16.87,5.12-25.32,7.92-4.97-2.87-9.97-5.71-15-8.52-8.04-2.25-16.16-4.38-24.35-6.4-1.94,1.47-3.88,2.95-5.81,4.44c4.72,2.77,9.41,5.57,14.07,8.4c2.28.85,4.54,1.71,6.81,2.57-2.05,1.06-4.11,2.13-6.16,3.21-1.24-.82-2.47-1.64-3.71-2.46-2.62-.25-5.25-.48-7.88-.7-3.72-1.91-7.45-3.8-11.2-5.67-9.58-4-19.26-7.86-29.04-11.58v-.06c2.58-11.09,5.37-22.2,8.39-33.31-1.95-4.72-3.89-9.45-5.8-14.18-6.4-4.14-12.85-8.23-19.33-12.28-10.02,6.58-19.96,13.37-29.82,20.39-6.29,8.92-12.42,17.93-18.4,27.04-3.6,4.29-7.17,8.61-10.7,12.96-5.26,5.62-10.46,11.3-15.61,17.06.01-.09.03-.18.04-.27c1.13-7.04,2.34-14.09,3.63-21.14c4.76-8.24,9.64-16.42,14.64-24.54-3.22.85-6.45,1.72-9.67,2.61l.14-.19c9.81-13.95,19.98-27.66,30.5-41.12c6.25-6.48,12.59-12.87,19-19.17c4.71-3.54,9.44-7.03,14.2-10.47c7.87-4.8,15.78-9.47,23.73-14.02c7.97-4.46,15.98-8.78,24.02-12.98c9.11-7.12,18.33-14.08,27.67-20.86c6.15-3.6,12.34-7.12,18.55-10.57c4.37-2.71,8.77-5.39,13.18-8.02h.02c11.09-4.6,22.23-8.98,33.39-13.12c8-3.53,16.03-6.94,24.09-10.24c4.46-4.81,8.98-9.58,13.56-14.31l.08-.02c6.88-1.56,13.76-3.04,20.63-4.44-2.42,4.48-4.79,8.97-7.12,13.46l-.04.03c-5.1,3.43-10.16,6.9-15.19,10.41-5.25,9.26-10.31,18.55-15.19,27.88c8.61-.44,17.18-.74,25.7-.92c6.13-4.81,12.33-9.56,18.59-14.23c5.08-8.79,10.33-17.55,15.76-26.25l.09-.02c14.59-4.13,29.22-7.89,43.86-11.29l.04.02c6.96,3.62,13.83,7.32,20.63,11.08-1.04,3.48-2.05,6.96-3.04,10.44c4.08,1.1,8.15,2.23,12.19,3.38-2.64,2.29-5.27,4.59-7.87,6.9h-.06c-5.83,1.25-11.66,2.55-17.48,3.91c1.21-3.78,2.45-7.57,3.71-11.35-9.92,3.84-19.79,7.85-29.59,12.03c1.53,2.99,3.06,5.98,4.59,8.98c3.59.04,7.16.11,10.73.2-1.79,1.47-3.57,2.95-5.35,4.43-3.86,3.1-7.68,6.24-11.47,9.39-.41-2.15-.81-4.29-1.21-6.44-7.45,7.39-14.73,14.87-21.85,22.45-8.03,7.29-15.89,14.7-23.6,22.23c1.05,2.15,2.11,4.3,3.16,6.45h.05c-6.86,8.81-13.51,17.71-19.96,26.69c1.4,3.51,2.8,7.02,4.21,10.52.65,1.7,1.3,3.4,1.95,5.1-.99.96-1.99,1.93-2.97,2.9-1.99-.46-3.99-.92-6-1.37-.6-1.09-1.2-2.17-1.8-3.26-1.49-1.38-2.98-2.75-4.47-4.12-12.2,6.72-24.27,13.75-36.2,21.1-5.19,5.9-10.3,11.86-15.31,17.88c2.89,6.91,5.81,13.81,8.76,20.68c5.77-1.27,11.52-2.47,17.26-3.6c3.32-5.17,6.7-10.32,10.15-15.44c2.08-1.81,4.17-3.6,6.27-5.39v.18c.32,5.84.68,11.68,1.09,17.49c6.17-3.03,12.36-5.98,18.57-8.84l.03.07c2.18,4.52,4.36,9.03,6.55,13.55c5.94-2.32,11.89-4.57,17.85-6.73c6.45-6.17,13.01-12.25,19.69-18.24h.04c12.67-4.36,25.38-8.36,38.12-12.03c2.63-1.52,5.27-3.03,7.92-4.52h.06c7.08,1.85,14.1,3.78,21.04,5.8c7.41-1.27,14.81-2.43,22.2-3.48l.03.03c3.73,3.2,7.42,6.42,11.08,9.67c7.93.42,15.8.97,23.62,1.64c7.01-2.04,14.04-3.98,21.08-5.82l.04.02M249.52,631.35c4.67-1.46,9.34-2.88,14.01-4.26c2.84-1.4,5.68-2.79,8.53-4.16-7.52.84-15.07,1.79-22.63,2.84l-.03-.04c-1.45-2.11-2.9-4.23-4.35-6.34-3.63,3.39-7.23,6.8-10.8,10.23c2.72.14,5.43.29,8.14.45-1.93,6.77-3.77,13.55-5.53,20.32c4.12-6.38,8.34-12.73,12.66-19.04m-34.36-58.2h.04c4.88-2.93,9.78-5.8,14.7-8.64c3.51-2.85,7.04-5.68,10.6-8.49-1.54-2.23-3.08-4.46-4.63-6.69l-.05-.07c-9.8,4.42-19.55,9-29.25,13.76l-.05.02c-1.01,1.15-2.03,2.31-3.03,3.46-2.69.46-5.38.94-8.07,1.43h-.04c-3.94,2.14-7.86,4.3-11.78,6.49-4.24,4.19-8.44,8.41-12.59,12.66l-.07.07c.4.68.79,1.36,1.19,2.04c6.56-3.82,13.16-7.56,19.79-11.22c7.76-1.72,15.5-3.33,23.23-4.83M794.43,593.7c-.38.45-.75.9-1.13,1.36.02.47.04.94.07,1.41.81.44,1.62.89,2.44,1.34.07-.52.15-1.05.22-1.57-.53-.84-1.06-1.69-1.59-2.53" transform="translate(.01 0)" fill="#e1e6f0" stroke-width="0"/><path id="ey1PDarSk5F5" d="M863,427v10.97v421.03c0,13.81,11.19,25,25,25h232.02" transform="translate(-35 0)" fill="none" stroke="#828c9b" stroke-width="2" stroke-linecap="round" stroke-linejoin="round" stroke-dashoffset="48" stroke-dasharray="5,7"/><path id="ey1PDarSk5F6" d="M190.91,707h175.09c13.81,0,25-11.19,25-25v-294.04-6.330966" fill="none" stroke="#828c9b" stroke-width="2" stroke-linecap="round" stroke-linejoin="round" stroke-dashoffset="20" stroke-dasharray="5,7"/><path id="ey1PDarSk5F7" d="M115.05,715h318.95c13.81,0,25-11.19,25-25v-257.97-7.01" fill="none" stroke="#828c9b" stroke-width="2" stroke-linecap="round" stroke-linejoin="round" stroke-dasharray="5,7"/><path id="ey1PDarSk5F8" d="M239.06,670h174.94c13.81,0,25-11.19,25-25v-219.98-6.949982" fill="none" stroke="#828c9b" stroke-width="2" stroke-linecap="round" stroke-linejoin="round" stroke-dasharray="5,7"/><path id="ey1PDarSk5F9" d="M749,427v12.13v124.87c0,13.81-11.19,25-25,25h-102c-13.81,0-25-11.19-25-25v-31.94-6.34" fill="none" stroke="#828c9b" stroke-width="2" stroke-linecap="round" stroke-linejoin="round" stroke-dashoffset="48" stroke-dasharray="5,7"/><path id="ey1PDarSk5F10" d="M887,427v11.11v262.89c0,13.81,11.19,25,25,25h47.94" transform="translate(20.504507 0.495494)" fill="none" stroke="#828c9b" stroke-width="2" stroke-linecap="round" stroke-linejoin="round" stroke-dashoffset="48" stroke-dasharray="5,7"/><path id="ey1PDarSk5F11" d="M887,427v11.11v194.89" transform="translate(-7.495493 0.495494)" fill="none" stroke="#828c9b" stroke-width="2" stroke-linecap="round" stroke-linejoin="round" stroke-dashoffset="48" stroke-dasharray="5,7"/><path id="ey1PDarSk5F12" d="M910.83,427v11.66v213.01c0,13.81,11.19,25,25,25h173.01" transform="translate(27 0)" fill="none" stroke="#828c9b" stroke-width="2" stroke-linecap="round" stroke-linejoin="round" stroke-dashoffset="48" stroke-dasharray="5,7"/><circle r="12.5" transform="translate(598 510.981252)" fill="#5ac8f5" stroke="#828c9b" stroke-width="3" stroke-miterlimit="10"/><circle r="12.5" transform="translate(981 725.490626)" fill="#5ac8f5" stroke="#828c9b" stroke-width="3" stroke-miterlimit="10"/><circle r="12.5" transform="translate(228 669.481252)" fill="#5ac8f5" stroke="#828c9b" stroke-width="3" stroke-miterlimit="10"/><circle r="12.5" transform="translate(1085 882)" fill="#5ac8f5" stroke="#828c9b" stroke-width="3" stroke-miterlimit="10"/><circle r="12.5" transform="translate(103 713.981252)" fill="#5ac8f5" stroke="#828c9b" stroke-width="3" stroke-miterlimit="10"/><circle r="12.5" transform="translate(182 705.5)" fill="#5ac8f5" stroke="#828c9b" stroke-width="3" stroke-miterlimit="10"/><circle r="12.5" transform="translate(1136 675.490626)" fill="#5ac8f5" stroke="#828c9b" stroke-width="3" stroke-miterlimit="10"/><circle r="12.5" transform="translate(879 634.490626)" fill="#5ac8f5" stroke="#828c9b" stroke-width="3" stroke-miterlimit="10"/></g><g transform="translate(.000001 0)"><path d="M620,265h-89c-14.36,0-26,11.64-26,26v14c0,.55.45,1,1,1s1-.45,1-1v-14c0-6.63,2.68-12.62,7.03-16.97c4.35-4.34,10.34-7.03,16.97-7.03h89c.55,0,1-.45,1-1s-.45-1-1-1v0Z" fill="#828c9b" stroke-width="0"/><path d="M568,183v49c0,14.36,11.64,26,26,26h34c.55,0,1-.45,1-1s-.45-1-1-1h-34c-6.63,0-12.62-2.68-16.97-7.03-4.34-4.35-7.03-10.34-7.03-16.97v-49c0-.55-.45-1-1-1s-1,.45-1,1v0Z" fill="#828c9b" stroke-width="0"/><path d="M940,305v-14c0-14.36-11.64-26-26-26h-79c-.55,0-1,.45-1,1s.45,1,1,1h79c6.63,0,12.62,2.68,16.97,7.03c4.34,4.35,7.03,10.34,7.03,16.97v14c0,.55.45,1,1,1s1-.45,1-1v0Z" fill="#828c9b" stroke-width="0"/><path d="M827,258h46c14.36,0,26-11.64,26-26v-49c0-.55-.45-1-1-1s-1,.45-1,1v49c0,6.63-2.68,12.62-7.03,16.97-4.35,4.34-10.34,7.03-16.97,7.03h-46c-.55,0-1,.45-1,1s.45,1,1,1v0Z" fill="#828c9b" stroke-width="0"/><path d="M628.25,109.44v5.29h-118.24v-5.29c0-1.18.47-2.3,1.28-3.11s1.96-1.31,3.11-1.31h109.43c2.43,0,4.42,1.99,4.42,4.42Zm-41.82,36.09c-.34,2.33,1.06,3.52,2.96,5.85l-2.86,4.79c-2.92-.59-4.64-1.28-6.53.12-1.9,1.43-1.74,3.27-2.05,6.25l-5.41,1.37c-1.65-2.52-2.36-4.2-4.7-4.54-2.33-.34-3.55,1.06-5.85,2.99l-4.76-2.86c.59-2.96,1.28-4.67-.12-6.57s-3.27-1.74-6.22-2.02l-1.34-5.38c2.46-1.65,4.2-2.36,4.54-4.73.34-2.36-1.06-3.55-2.96-5.85l2.86-4.79c2.92.59,4.64,1.28,6.53-.16c1.9-1.43,1.74-3.27,2.05-6.25l5.41-1.37c1.65,2.49,2.36,4.2,4.73,4.54c2.33.34,3.52-1.09,5.85-2.99l4.76,2.86c-.59,2.96-1.28,4.67.12,6.57s3.27,1.74,6.22,2.02l1.34,5.41c-2.52,1.68-4.23,2.4-4.57,4.73v.01Zm-10.77-2.36c0-2.99-2.43-5.41-5.41-5.41s-5.41,2.43-5.41,5.41s2.43,5.41,5.41,5.41s5.41-2.43,5.41-5.41Z" fill="#5ac8f5" stroke-width="0"/><path d="M587.99,145.78c.03-.34.16-.65.31-.93.12-.19.28-.37.44-.56.37-.34.78-.65,1.21-.93.53-.34,1.18-.75,1.9-1.24.56-.37.81-1.03.65-1.68l-1.34-5.41c-.16-.65-.72-1.12-1.37-1.18-.78-.06-1.46-.12-2.02-.19-.44-.03-.81-.09-1.15-.12-.4-.06-.78-.19-1.15-.37-.31-.19-.59-.44-.81-.72-.19-.22-.31-.5-.4-.78-.09-.25-.12-.53-.12-.78.03-.53.09-1.03.19-1.52.12-.62.31-1.37.47-2.24.12-.65-.16-1.31-.72-1.65l-4.76-2.86c-.56-.34-1.28-.28-1.77.12-1.09.9-1.9,1.65-2.52,2.08-.25.19-.56.34-.84.47-.25.09-.53.12-.78.12-.16,0-.31,0-.44-.03-.34-.03-.65-.16-.93-.31-.19-.12-.37-.25-.56-.44-.34-.37-.65-.78-.93-1.21-.34-.53-.75-1.18-1.24-1.9-.37-.56-1.03-.81-1.68-.65l-5.41,1.37c-.62.16-1.12.72-1.18,1.37-.06.78-.12,1.46-.19,2.05-.03.44-.09.84-.16,1.15-.06.4-.19.78-.37,1.12-.19.31-.44.59-.75.81-.25.19-.5.31-.78.4-.25.09-.53.12-.81.12-.5,0-1.03-.09-1.52-.19-.62-.12-1.37-.28-2.21-.47-.65-.12-1.31.16-1.65.72l-2.86,4.79c-.34.56-.28,1.28.12,1.77.9,1.06,1.62,1.87,2.05,2.52.19.25.34.56.47.84.09.25.12.53.12.78c0,.16,0,.31-.03.47-.03.34-.16.65-.31.96-.12.22-.28.4-.44.56-.37.34-.78.65-1.21.93-.53.34-1.15.75-1.9,1.21-.56.37-.81,1.03-.65,1.68l1.34,5.41c.16.65.72,1.12,1.37,1.18.78.06,1.46.12,2.02.16.44.03.81.09,1.15.12.4.06.78.19,1.12.34.31.19.59.44.81.75.19.22.31.5.4.78.09.25.12.53.12.78-.03.53-.09,1.03-.19,1.52-.12.62-.31,1.37-.47,2.24-.12.65.16,1.31.72,1.65l4.76,2.86c.56.34,1.28.28,1.8-.12c1.09-.9,1.9-1.65,2.52-2.08.25-.19.56-.34.84-.47.25-.09.53-.16.81-.12.16,0,.31,0,.47.03.34.03.65.16.93.31.19.12.37.25.53.44.34.37.65.78.93,1.21.34.53.75,1.18,1.24,1.9.37.56,1.03.81,1.68.65l5.38-1.37c.62-.16,1.12-.72,1.18-1.37.06-.78.12-1.46.19-2.05.03-.44.09-.81.16-1.15.06-.4.19-.78.37-1.12.19-.31.44-.59.75-.81.25-.19.5-.31.78-.4.25-.09.53-.12.81-.12.5.03,1.03.09,1.52.19.62.12,1.37.31,2.21.47.65.12,1.31-.16,1.65-.72l2.86-4.79c.34-.56.28-1.28-.12-1.8-.9-1.09-1.62-1.9-2.05-2.52-.19-.25-.34-.53-.47-.84-.09-.25-.12-.53-.12-.78c0-.09,0-.25.03-.4v-.01Zm-5.51,8.15c-.59,0-1.18.09-1.74.25-.62.19-1.18.5-1.68.87-.59.44-1.09.96-1.49,1.59-.28.44-.47.9-.62,1.37-.19.68-.31,1.4-.37,2.12-.03.37-.06.78-.09,1.18l-3.24.81c-.19-.28-.34-.53-.5-.78-.28-.4-.53-.81-.81-1.18-.44-.59-.96-1.09-1.59-1.49-.68-.44-1.46-.72-2.27-.84-.31-.03-.59-.06-.9-.06-.62,0-1.28.12-1.87.34-.4.16-.81.34-1.18.59-.56.34-1.06.75-1.56,1.15-.25.19-.47.4-.72.62l-2.86-1.71c.09-.4.19-.78.25-1.18.16-.72.25-1.43.25-2.15c0-.59-.09-1.18-.25-1.71-.19-.59-.5-1.18-.87-1.68-.44-.59-.96-1.09-1.59-1.46-.44-.28-.9-.47-1.37-.62-.68-.19-1.4-.31-2.12-.37-.37-.03-.75-.06-1.15-.09l-.81-3.27c.25-.16.53-.34.78-.5.81-.5,1.59-1.12,2.24-1.8.34-.4.62-.84.84-1.31.22-.5.4-1.06.47-1.59.03-.31.06-.62.06-.9c0-.62-.09-1.28-.31-1.87-.16-.4-.34-.81-.59-1.18-.34-.53-.72-1.06-1.15-1.52-.19-.25-.4-.47-.62-.72l1.74-2.89c.4.09.78.16,1.15.25.68.16,1.4.25,2.12.25.59,0,1.18-.09,1.74-.25.62-.19,1.18-.5,1.68-.87.59-.44,1.09-.96,1.49-1.59.28-.44.47-.9.62-1.37.19-.68.31-1.4.37-2.12.03-.37.06-.78.09-1.18l3.24-.81c.19.28.34.53.5.78.28.4.53.81.81,1.18.44.59,1,1.09,1.59,1.49.68.44,1.46.72,2.27.84h.03c.28.03.59.06.9.06.62,0,1.28-.09,1.87-.34.4-.16.81-.34,1.18-.59.56-.34,1.06-.75,1.56-1.15.25-.19.47-.4.72-.62l2.86,1.71c-.09.4-.19.78-.25,1.18-.16.72-.25,1.43-.25,2.15c0,1.21.37,2.43,1.12,3.39v.03c.44.59.96,1.09,1.59,1.49.44.25.9.47,1.37.59.68.19,1.4.31,2.12.37.37.03.78.06,1.15.09l.78,3.27c-.28.19-.53.34-.78.5-.4.28-.78.53-1.15.81-.59.44-1.09,1-1.52,1.59-.44.68-.72,1.46-.84,2.24v.03c-.06.31-.06.62-.06.93c0,.62.09,1.24.31,1.84.16.4.34.81.59,1.18.34.53.72,1.06,1.15,1.56.19.25.4.5.62.75l-1.71,2.86c-.4-.09-.78-.16-1.15-.25-.75-.19-1.46-.28-2.18-.28l-.01-.01Zm-12.23-17.74c-3.33,0-6.19,2.36-6.85,5.6-.65,3.24,1.09,6.53,4.17,7.81s6.63.19,8.46-2.58c1.84-2.77,1.49-6.44-.87-8.81-1.31-1.28-3.08-2.02-4.92-2.02h.01Zm2.74,9.71c-1.31,1.31-3.36,1.52-4.89.5-1.52-1.03-2.15-2.99-1.43-4.7s2.52-2.68,4.32-2.3c1.8.37,3.11,1.96,3.11,3.8c0,1-.4,1.96-1.12,2.71l.01-.01Zm55.32-25.2c-.87,0-1.56.68-1.56,1.56v44.87c0,1.59-1.31,2.89-2.89,2.89h-109.43c-1.59,0-2.89-1.31-2.89-2.89v-51.34h116.77c.87,0,1.56-.68,1.56-1.56v-4.67c0-3.3-2.68-6.01-6.01-6.01h-109.43c-3.3,0-6.01,2.68-6.01,6.01v57.59c0,3.3,2.68,6.01,6.01,6.01h109.43c3.3,0,6.01-2.68,6.01-6.01v-44.9c0-.87-.68-1.56-1.56-1.56v.01Zm-115.9-13.19c.53-.53,1.28-.84,2.05-.84h109.43c1.59,0,2.89,1.31,2.89,2.89v3.11h-115.22v-3.11c0-.78.28-1.52.84-2.05h.01Z" fill="#323c46" stroke-width="0"/><path d="M941.44,361.2c0,5.94-2.12,11.05-6.32,15.25s-9.3,6.32-15.25,6.32-11.05-2.12-15.25-6.32-6.32-9.3-6.32-15.25s2.12-11.05,6.32-15.25s9.3-6.32,15.25-6.32s11.05,2.12,15.25,6.32c4.2,4.23,6.32,9.3,6.32,15.25v.75" fill="#5ac8f5" stroke-width="0"/><path d="M925.79,354.94l-4.32-4.29v26.17c0,.87-.68,1.56-1.56,1.56s-1.56-.68-1.56-1.56v-26.35l-4.51,4.48c-.62.59-1.59.59-2.18-.03-.59-.59-.62-1.56-.03-2.18l7.06-7.06c.62-.62,1.59-.62,2.21,0l7.09,7.09c.59.62.59,1.59-.03,2.18-.59.59-1.56.62-2.18,0l.01-.01Zm69.6-.72c-4.17-4.2-9.86-6.53-15.78-6.53h-27.1c-.87,0-1.56.68-1.56,1.56s.68,1.56,1.56,1.56h27.1c6.91-.09,13.35,3.55,16.83,9.52s3.48,13.35,0,19.32-9.89,9.61-16.83,9.52h-82.95c-9.99,0-18.33-7.69-19.14-17.64-.81-9.96,6.19-18.89,16.06-20.47.75-.12,1.31-.78,1.31-1.52.03-12.63,8.09-23.87,20.07-27.94c11.98-4.08,25.2-.06,32.92,9.96.5.65,1.43.81,2.08.34c5.38-3.61,12.13-4.54,18.33-2.55c6.19,1.99,11.11,6.69,13.38,12.76.31.81,1.21,1.21,1.99.9.81-.31,1.21-1.21.9-1.99-2.52-6.72-7.9-12.01-14.69-14.41-6.78-2.4-14.28-1.68-20.47,1.96-8.68-10.33-22.81-14.25-35.56-9.89-12.76,4.36-21.53,16.09-22.09,29.56-11.05,2.49-18.51,12.91-17.27,24.21c1.24,11.29,10.8,19.85,22.15,19.85h82.98c9.02,0,17.14-5.45,20.6-13.75c3.45-8.31,1.56-17.92-4.82-24.3v-.03Z" fill="#323c46" stroke-width="0"/><path d="M506.24,337.21c-7.03,0-13.35,4.23-16.06,10.7s-1.21,13.94,3.76,18.92s12.45,6.44,18.92,3.76s10.7-9.02,10.7-16.02c0-4.6-1.84-9.02-5.07-12.26-3.24-3.24-7.65-5.1-12.26-5.1h.01Zm0,22.03c-1.9,0-3.58-1.15-4.32-2.89-.72-1.74-.31-3.76,1.03-5.07c1.34-1.34,3.33-1.74,5.07-1.03s2.89,2.43,2.89,4.32c0,2.58-2.08,4.67-4.67,4.67Z" fill="#5ac8f5" stroke-width="0"/><path d="M534.62,326.2c-13.53-13.53-34.76-15.62-50.69-4.98s-22.12,31.05-14.78,48.73s26.14,27.75,44.9,24.02s32.3-20.22,32.3-39.36c.03-10.67-4.17-20.88-11.73-28.41Zm-2.21,54.54c-12.48,12.48-32.08,14.41-46.77,4.6-14.69-9.8-20.38-28.63-13.63-44.96c6.75-16.34,24.11-25.58,41.44-22.15c17.33,3.42,29.81,18.67,29.81,36.31c0,9.86-3.89,19.29-10.86,26.2h.01Zm-26.17-7.34c-7.41,0-14.13-4.36-17.14-11.14-3.02-6.78-1.8-14.69,3.11-20.22s12.66-7.65,19.73-5.45c.53.16.93.59,1.06,1.15.12.53-.06,1.12-.47,1.49s-1,.5-1.52.34c-7.16-2.27-14.94.87-18.54,7.47-3.61,6.6-2.02,14.81,3.76,19.63c5.79,4.82,14.16,4.82,19.98.06s7.44-12.97,3.86-19.6c-.4-.75-.12-1.71.62-2.12.75-.4,1.71-.12,2.12.62c3.14,5.85,2.99,12.88-.4,18.58-3.36,5.69-9.52,9.18-16.15,9.18l-.02.01Zm0-25.05c-2.52,0-4.79,1.52-5.76,3.83-.96,2.33-.44,5.01,1.34,6.78c1.77,1.77,4.45,2.3,6.78,1.34s3.83-3.24,3.83-5.76c.03-3.39-2.77-6.19-6.19-6.19Zm0,9.33c-1.24,0-2.4-.75-2.86-1.93-.47-1.15-.22-2.49.68-3.39s2.24-1.15,3.39-.68s1.93,1.62,1.93,2.86c-.03,1.74-1.43,3.14-3.14,3.14Z" fill="#323c46" stroke-width="0"/><path d="M526.13,374.36c.56.65.53,1.62-.12,2.21-5.41,4.89-12.45,7.59-19.73,7.56-.34,0-.65,0-1-.03-.56-.03-1.06-.34-1.31-.81s-.25-1.09.06-1.56c.28-.47.81-.75,1.37-.75h.9c6.53,0,12.82-2.4,17.67-6.78.31-.28.72-.4,1.12-.37.37.03.75.22,1.03.53h.01Z" fill="#5ac8f5" stroke-width="0"/><path d="M718.41,255.08v47.81h-36.92c-5.7,0-10.27-4.62-10.27-10.27v-37.49c0-5.7,4.62-10.27,10.27-10.27h26.6c2.75,0,5.34,1.09,7.26,3.01c1.97,1.87,3.06,4.46,3.06,7.21Zm56.06-10.32h-26.6c-5.7,0-10.27,4.62-10.27,10.27v47.81h36.92c5.7,0,10.27-4.62,10.27-10.27v-37.49c0-5.7-4.62-10.32-10.32-10.32Z" fill="#5ac8f5" stroke-width="0"/><path d="M766.9,262.91c0,2.28-1.4,4.41-3.53,5.29s-4.56.41-6.22-1.24c-1.61-1.61-2.13-4.1-1.24-6.22s2.96-3.53,5.29-3.53c3.16,0,5.7,2.54,5.7,5.7Zm-71.41-5.7c-2.28,0-4.41,1.4-5.29,3.53s-.41,4.56,1.24,6.22c1.61,1.61,4.1,2.13,6.22,1.24c2.13-.88,3.53-2.96,3.53-5.29c0-1.5-.57-2.96-1.66-4.04-1.09-1.09-2.54-1.71-4.04-1.66Z" fill="#fff" stroke-width="0"/><path d="M761.19,271.21c4.56,0,8.3-3.73,8.25-8.3c0-4.56-3.73-8.3-8.3-8.3s-8.3,3.68-8.3,8.25c0,2.23.88,4.36,2.44,5.91c1.56,1.56,3.68,2.44,5.91,2.44Zm0-11.46c1.71,0,3.11,1.4,3.06,3.11c0,1.71-1.4,3.11-3.11,3.11s-3.11-1.4-3.11-3.11c0-.83.31-1.61.93-2.23s1.4-.88,2.23-.88Zm-7.73,21.21h15.35c1.45,0,2.59,1.14,2.59,2.59s-1.14,2.59-2.59,2.59h-15.35c-1.45,0-2.59-1.14-2.59-2.59s1.19-2.59,2.59-2.59Zm-57.98-9.75c4.56,0,8.3-3.73,8.3-8.3s-3.68-8.3-8.3-8.3-8.3,3.68-8.3,8.25s3.68,8.35,8.3,8.35Zm0-11.46c1.24,0,2.39.78,2.85,1.92.47,1.14.21,2.49-.67,3.37s-2.23,1.14-3.37.67-1.92-1.61-1.92-2.85c0-1.71,1.4-3.11,3.11-3.11Zm-7.67,21.21h15.35c1.45,0,2.59,1.14,2.59,2.59s-1.14,2.59-2.59,2.59h-15.35c-1.45,0-2.59-1.14-2.59-2.59s1.19-2.59,2.59-2.59Zm146.24,6.79c0,20.59-16.7,37.29-37.29,37.29h-49.47c-3.27,0-6.38-1.3-8.71-3.58s-3.58-5.45-3.58-8.71v-58.39c0-3.27,1.3-6.38,3.58-8.71s5.45-3.58,8.71-3.58h27.59c6.79,0,12.29,5.5,12.29,12.29v39.05c0,6.79-5.5,12.29-12.29,12.29h-21.88c-1.45,0-2.59-1.14-2.59-2.59s1.14-2.59,2.59-2.59h21.88c3.94,0,7.1-3.16,7.1-7.1v-39.05c0-3.94-3.16-7.1-7.1-7.1h-27.59c-1.87,0-3.68.73-5.03,2.07-1.35,1.35-2.07,3.16-2.07,5.03v58.34c0,1.87.73,3.68,2.07,5.03c1.35,1.35,3.16,2.07,5.03,2.07h49.47c16.28.05,29.97-12.08,31.94-28.21s-8.45-31.22-24.27-35.06c-1.14-.26-1.97-1.3-1.97-2.54v-.93c0-13.12-7.21-25.15-18.77-31.37-11.56-6.17-25.62-5.5-36.51,1.82-1.14.73-2.64.52-3.47-.57-9.33-12.19-23.8-19.29-39.15-19.29-13.12,0-25.72,5.29-34.9,14.68-9.28,9.33-14.47,21.99-14.47,35.16c0,1.3-.88,2.39-2.18,2.59-16.49,2.64-28.21,17.58-26.86,34.23s15.25,29.51,32,29.51h51.13c3.94,0,7.1-3.16,7.1-7.1v-58.34c0-3.94-3.16-7.1-7.1-7.1h-27.59c-1.87,0-3.68.73-5.03,2.07-1.35,1.35-2.07,3.16-2.07,5.03v39.05c0,1.87.73,3.68,2.07,5.03c1.35,1.35,3.16,2.07,5.03,2.07h21.88c1.45,0,2.59,1.14,2.59,2.59s-1.14,2.59-2.59,2.59h-21.88c-3.27,0-6.38-1.3-8.71-3.58-2.28-2.28-3.58-5.45-3.58-8.71v-39.05c0-3.27,1.3-6.38,3.58-8.71c2.28-2.28,5.45-3.58,8.71-3.58h27.59c6.79,0,12.29,5.5,12.29,12.29v58.34c0,6.79-5.5,12.29-12.29,12.29h-51.13c-18.98,0-34.95-14.31-37.03-33.19-2.07-18.88,10.37-36.3,28.94-40.45.52-13.79,6.22-26.86,15.92-36.66c16.54-16.8,42.06-21.05,63.11-10.42c6.64,3.32,12.5,7.99,17.27,13.69c12.45-7.31,27.8-7.47,40.45-.47s20.54,20.17,20.9,34.59c15.66,4.77,26.4,19.24,26.34,35.68v-.03Z" fill="#323c46" stroke-width="0"/><path d="M906.64,139.93c0-5.54-4.48-10.02-10.02-10.02s-10.02,4.48-10.02,10.02c0,3.28,1.57,6.18,4.01,8.01v11c0,2.21,1.79,4,4,4h4c2.21,0,4-1.79,4-4v-11c2.43-1.83,4-4.73,4-8.01v0h.03Z" fill="#5ac8f5" stroke-width="0"/><path d="M925.64,115.18h-5.12v-7.14c0-6.6-2.67-12.58-7-16.9-4.32-4.32-10.3-7-16.9-7v0c-6.6,0-12.58,2.67-16.9,7-4.32,4.32-7,10.3-7,16.9v7.14h-5.12c-4.93,0-8.93,4-8.93,8.93v44.65c0,4.93,4,8.93,8.93,8.93h58.05c4.93,0,8.93-4,8.93-8.93v-44.65c0-4.93-4-8.93-8.93-8.93h-.01Zm-49.77-7.14c0-5.73,2.32-10.91,6.08-14.67c3.76-3.75,8.94-6.08,14.67-6.08v0c5.73,0,10.91,2.32,14.67,6.08c3.75,3.76,6.08,8.94,6.08,14.67v7.14h-41.48v-7.14v0h-.02Zm55.55,60.71c0,3.19-2.59,5.78-5.78,5.78h-58.03c-3.19,0-5.78-2.59-5.78-5.78v-44.65c0-3.19,2.59-5.78,5.78-5.78h58.03c3.19,0,5.78,2.59,5.78,5.78c0,0,0,44.65,0,44.65Zm-34.8-40.41c-3.2,0-6.1,1.3-8.2,3.39s-3.39,5-3.39,8.2c0,1.89.46,3.69,1.26,5.26.68,1.34,1.62,2.52,2.74,3.49v10.25c0,1.54.63,2.94,1.64,3.94c1.01,1.01,2.41,1.64,3.94,1.64h4c1.54,0,2.94-.63,3.94-1.64c1.01-1.01,1.64-2.41,1.64-3.94v-10.25c1.12-.97,2.06-2.16,2.75-3.49.81-1.58,1.26-3.38,1.26-5.26c0-3.19-1.3-6.1-3.39-8.2s-5-3.39-8.2-3.39v0h.01Zm7.52,15.43c-.59,1.15-1.43,2.15-2.46,2.92-.4.3-.63.76-.63,1.26v11c0,.68-.27,1.28-.71,1.72s-1.04.71-1.72.71h-4c-.68,0-1.28-.27-1.72-.71s-.71-1.04-.71-1.72v-11c0-.5-.23-.96-.63-1.26-1.03-.77-1.87-1.77-2.46-2.92s-.92-2.45-.92-3.83c0-2.34.95-4.44,2.48-5.97s3.64-2.48,5.97-2.48s4.44.94,5.97,2.48s2.48,3.64,2.48,5.97c0,1.39-.33,2.68-.92,3.83v0h-.02Z" fill="#323c46" stroke-width="0"/><path d="M643.02,14c27.71,0,54.22,6.27,78.79,18.63c23.43,11.79,44.31,29.04,60.37,49.89l1.71,2.22l2.33-1.56c21.07-14.11,45.65-21.56,71.09-21.56c34.18,0,66.31,13.31,90.48,37.48s37.48,56.3,37.48,90.48c0,.74-.03,1.47-.05,2.25-.01.37-.03.75-.04,1.13l-.06,2.42l2.35.58c24.76,6.08,47.19,20.49,63.15,40.57c16.44,20.69,25.14,45.63,25.14,72.12c0,18.71-4.32,36.57-12.83,53.08-8.12,15.75-19.96,29.67-34.26,40.25-20.16,15.08-44.15,23.04-69.4,23.04h-475.9c-30.98,0-60.1-12.06-82.01-33.97s-33.97-51.03-33.97-82.01c0-3.9.22-7.99.65-12.15l.02-.17c.01-.09.02-.19.03-.27.18-1.66.37-3.17.59-4.63.11-.76.24-1.51.36-2.26l.03-.2c.13-.79.27-1.57.42-2.36.24-1.26.51-2.59.82-3.94l.12-.52c5.15-22.42,16.79-42.64,33.64-58.48c16.92-15.91,37.93-26.26,60.74-29.96l2.56-.42-.04-2.6v-.2c0-.28-.01-.56-.01-.83c0-14.93,1.88-29.77,5.59-44.11c9.48-37.08,31.36-70.61,61.62-94.42c15.14-11.92,31.99-21.2,50.09-27.58c18.72-6.6,38.37-9.95,58.4-9.95m0-3c-83.3,0-153.28,57.04-173.01,134.2-3.71,14.33-5.69,29.36-5.69,44.85c0,.36,0,.72.01,1.08-47.83,7.74-86.08,43.97-96.83,90.72-.04.18-.08.35-.12.53-.3,1.34-.58,2.69-.84,4.04-.15.8-.29,1.6-.43,2.41-.14.84-.28,1.68-.41,2.53-.23,1.57-.43,3.15-.6,4.74-.02.15-.04.3-.05.46-.43,4.1-.67,8.25-.67,12.46v0c0,65.71,53.27,118.98,118.98,118.98h475.9c26.7,0,51.34-8.79,71.19-23.64c29.29-21.69,48.29-56.49,48.29-95.73v0c0-55.93-38.58-102.83-90.57-115.59.03-1.15.09-2.3.09-3.46c0-72.32-58.63-130.95-130.96-130.95-26.92,0-51.95,8.14-72.76,22.07C751.89,38.31,700.64,11,643.01,11v0l.01-.01Z" fill="#828c9b" stroke-width="0"/></g></g></svg>
